# xmcd
#
# Track frame offsets: 
#        151
#        41073
#        75289
#        99404
#        136487
#        172706
#        237953
#
# Disc length: 3935 seconds
#
# Revision: 1
# Processed by: cddbd v1.5.2PL0 Copyright (c) Steve Scherf et al.
# Submitted via: ExactAudioCopyFreeDBPlugin 1.0
#
DISCID=480f5d07
DTITLE=Karlheinz Miklin and Quinteto Argentina - Malambo Blue
DYEAR=1988
DGENRE=Jazz
TTITLE0=Mambon
TTITLE1=Una Mañana
TTITLE2=Von Stuck's Dance
TTITLE3=Cereza
TTITLE4=Como Un Loco Tamboril
TTITLE5=Malambo Blue
TTITLE6=La Llave Secreta
EXTD=YEAR: 1988
EXTT0=
EXTT1=
EXTT2=
EXTT3=
EXTT4=
EXTT5=
EXTT6=
PLAYORDER=
